<svg width="512" height="512" xmlns="http://www.w3.org/2000/svg">

 <g>
  <title>background</title>
  <rect fill="none" id="canvas_background" height="602" width="802" y="-1" x="-1"/>
 </g>
 <g>
  <title>Layer 1</title>
  <path fill="#ffffff" id="svg_1" d="m464.883,64.267l-417.766,0c-25.98,0 -47.117,21.136 -47.117,47.149c0,25.98 21.137,47.117 47.117,47.117l417.766,0c25.98,0 47.117,-21.137 47.117,-47.117c0,-26.013 -21.137,-47.149 -47.117,-47.149z"/>
  <path fill="#ffffff" id="svg_2" d="m464.883,208.867l-417.766,0c-25.98,0 -47.117,21.136 -47.117,47.149c0,25.98 21.137,47.117 47.117,47.117l417.766,0c25.98,0 47.117,-21.137 47.117,-47.117c0,-26.013 -21.137,-47.149 -47.117,-47.149z"/>
  <path fill="#ffffff" id="svg_3" d="m464.883,353.467l-417.766,0c-25.98,0 -47.117,21.137 -47.117,47.149c0,25.98 21.137,47.117 47.117,47.117l417.766,0c25.98,0 47.117,-21.137 47.117,-47.117c0,-26.012 -21.137,-47.149 -47.117,-47.149z"/>
 </g>
</svg>