<svg width="512" height="512" xmlns="http://www.w3.org/2000/svg">

 <g>
  <title>background</title>
  <rect fill="none" id="canvas_background" height="602" width="802" y="-1" x="-1"/>
 </g>
 <g>
  <title>Layer 1</title>
  <g id="svg_1">
   <g id="svg_2">
    <path fill="#ffffff" id="svg_3" d="m501.333,96l-490.666,0c-5.888,0 -10.667,4.779 -10.667,10.667s4.779,10.667 10.667,10.667l490.667,0c5.888,0 10.667,-4.779 10.667,-10.667s-4.78,-10.667 -10.668,-10.667z"/>
   </g>
  </g>
  <g id="svg_4">
   <g id="svg_5">
    <path fill="#ffffff" id="svg_6" d="m501.333,245.333l-490.666,0c-5.888,0 -10.667,4.779 -10.667,10.667s4.779,10.667 10.667,10.667l490.667,0c5.888,0 10.667,-4.779 10.667,-10.667s-4.78,-10.667 -10.668,-10.667z"/>
   </g>
  </g>
  <g id="svg_7">
   <g id="svg_8">
    <path fill="#ffffff" id="svg_9" d="m501.333,394.667l-490.666,0c-5.888,0 -10.667,4.778 -10.667,10.666c0,5.888 4.779,10.667 10.667,10.667l490.667,0c5.888,0 10.667,-4.779 10.667,-10.667c-0.001,-5.888 -4.78,-10.666 -10.668,-10.666z"/>
   </g>
  </g>
  <g id="svg_10"/>
  <g id="svg_11"/>
  <g id="svg_12"/>
  <g id="svg_13"/>
  <g id="svg_14"/>
  <g id="svg_15"/>
  <g id="svg_16"/>
  <g id="svg_17"/>
  <g id="svg_18"/>
  <g id="svg_19"/>
  <g id="svg_20"/>
  <g id="svg_21"/>
  <g id="svg_22"/>
  <g id="svg_23"/>
  <g id="svg_24"/>
 </g>
</svg>